<?xml version="1.0" standalone="no"?>
<!DOCTYPE svg PUBLIC "-//W3C//DTD SVG 20010904//EN"
 "http://www.w3.org/TR/2001/REC-SVG-20010904/DTD/svg10.dtd">
<svg version="1.0" xmlns="http://www.w3.org/2000/svg"
 width="500.000000pt" height="500.000000pt" viewBox="0 0 500.000000 500.000000"
 preserveAspectRatio="xMidYMid meet">

<g transform="translate(0.000000,500.000000) scale(0.100000,-0.100000)"
fill="#000000" stroke="none">
<path d="M2195 4374 c-11 -2 -45 -9 -75 -15 -30 -6 -59 -15 -65 -19 -5 -4 -32
-13 -60 -19 -27 -7 -59 -18 -71 -26 -20 -13 -154 -55 -219 -70 -16 -3 -59 -23
-95 -44 -36 -21 -94 -53 -130 -70 -36 -18 -72 -39 -81 -47 -8 -8 -23 -14 -33
-14 -9 0 -15 -4 -11 -9 3 -6 -20 -28 -52 -50 -32 -21 -89 -71 -127 -110 -38
-39 -73 -71 -77 -71 -5 0 -16 -14 -25 -31 -15 -30 -15 -32 5 -46 12 -8 18 -20
14 -26 -3 -7 3 -3 16 7 16 14 18 22 9 27 -14 9 -15 8 35 38 20 12 37 31 37 40
0 24 11 33 25 21 8 -6 16 0 28 19 12 20 23 28 35 24 13 -3 42 21 102 84 47 50
85 83 87 76 8 -22 39 -14 51 11 19 43 81 103 127 125 25 12 48 21 52 21 4 0
-24 -32 -62 -70 l-70 -70 35 6 c36 7 90 31 90 40 0 2 -14 -3 -31 -11 -29 -16
-30 -16 -20 3 13 24 101 82 125 82 9 0 14 -4 11 -10 -9 -15 3 -13 79 15 38 14
85 25 104 25 33 0 34 1 19 18 -10 10 -17 28 -17 39 0 17 8 21 50 25 28 3 62 3
76 0 23 -4 24 -6 9 -22 -14 -16 -12 -16 32 -8 27 5 64 11 83 14 19 3 51 14 70
24 32 17 47 18 173 9 76 -5 145 -13 154 -18 10 -5 25 -3 42 5 31 16 162 19
177 4 6 -6 50 -15 98 -20 84 -10 146 -31 146 -49 0 -5 -5 -11 -10 -13 -6 -2
25 -20 70 -40 44 -20 80 -32 80 -27 0 23 150 -29 173 -60 17 -23 54 -51 42
-32 -6 11 -3 13 13 9 12 -4 20 -2 16 3 -3 5 -10 9 -15 9 -6 0 -30 16 -53 35
-24 19 -58 37 -77 39 -56 7 -148 46 -169 71 -42 50 -308 112 -590 136 -132 11
-329 18 -355 13z"/>
<path d="M2426 4094 c-19 -19 -21 -87 -3 -102 27 -23 62 -24 90 -2 31 25 36
63 11 98 -18 26 -74 30 -98 6z m88 -37 c8 -23 6 -31 -12 -49 -18 -19 -25 -20
-47 -10 -17 8 -25 20 -25 36 0 45 10 57 44 54 23 -2 33 -10 40 -31z"/>
<path d="M2143 4073 c-13 -2 -23 -9 -23 -14 0 -6 14 -7 35 -3 l35 6 -20 -47
c-32 -75 -28 -82 39 -69 17 4 28 10 25 15 -2 5 -18 6 -35 2 l-30 -6 21 52 c11
28 20 56 20 61 0 10 -26 11 -67 3z"/>
<path d="M2746 4065 c-38 -38 -28 -97 21 -116 57 -22 113 45 82 99 -18 33 -77
43 -103 17z m84 -25 c22 -42 -19 -92 -59 -71 -25 14 -32 36 -21 66 12 32 64
35 80 5z"/>
<path d="M1435 3979 c-11 -17 1 -21 15 -4 8 9 8 15 2 15 -6 0 -14 -5 -17 -11z"/>
<path d="M3590 3920 c14 -11 38 -29 53 -41 15 -12 30 -19 33 -16 9 9 -6 47
-18 47 -6 0 -6 -6 2 -15 21 -25 -5 -17 -29 9 -13 13 -32 27 -44 30 -20 5 -20
4 3 -14z"/>
<path d="M3783 3783 c9 -9 20 -13 24 -9 4 4 1 11 -7 16 -25 16 -35 11 -17 -7z"/>
<path d="M1029 3740 c-9 -5 -29 -28 -45 -52 -35 -52 -41 -59 -99 -128 -75 -88
-182 -270 -231 -390 -10 -25 -23 -52 -29 -60 -15 -18 -45 -107 -45 -131 0 -9
-7 -22 -15 -29 -17 -14 -20 -65 -5 -75 5 -3 7 -20 5 -38 -4 -25 -3 -27 3 -8 4
14 14 27 21 29 11 4 12 -4 7 -32 -4 -20 -3 -36 1 -36 16 0 63 146 63 194 0 26
7 78 15 115 15 64 17 68 40 63 21 -4 25 0 25 20 0 14 11 47 25 74 14 27 25 54
25 61 0 6 18 34 40 62 22 28 67 92 101 143 33 51 64 95 68 98 8 6 53 121 49
126 -2 1 -10 -1 -19 -6z"/>
<path d="M2160 3719 c87 -9 169 -37 231 -79 24 -16 45 -27 48 -25 2 2 -6 20
-18 40 l-21 36 22 -6 c31 -8 2 10 -32 20 l-24 8 27 -37 c16 -20 26 -36 23 -36
-3 0 -26 13 -52 29 -53 34 -160 62 -231 60 -40 -1 -35 -3 27 -10z"/>
<path d="M1986 3700 c-53 -21 -80 -40 -56 -40 7 0 -5 -12 -28 -27 -56 -38 -99
-96 -117 -156 -16 -53 -19 -99 -9 -110 3 -3 30 10 58 29 75 50 150 75 237 81
61 5 81 2 102 -12 56 -36 25 -107 -63 -143 l-50 -21 0 45 c0 54 -11 56 -34 7
-9 -21 -32 -56 -50 -77 l-33 -40 -6 42 c-4 22 -11 43 -16 46 -5 3 -18 -22 -31
-57 -12 -34 -29 -73 -37 -85 -8 -13 -12 -26 -9 -29 6 -6 39 59 55 110 16 46
31 39 31 -15 0 -41 0 -41 21 -22 11 10 37 45 57 78 30 48 38 55 40 38 2 -11
-2 -30 -8 -41 l-11 -21 52 20 c73 29 85 36 108 66 21 27 27 69 13 90 -40 60
-224 39 -356 -41 -32 -19 -60 -35 -62 -35 -9 0 -3 50 11 97 19 65 81 135 148
167 30 14 44 25 33 26 -33 0 -5 18 54 34 30 8 44 15 30 15 -14 0 -47 -9 -74
-19z"/>
<path d="M3916 3707 c3 -10 9 -15 12 -12 3 3 0 11 -7 18 -10 9 -11 8 -5 -6z"/>
<path d="M1043 3665 c-9 -24 1 -27 15 -5 8 13 8 20 2 20 -6 0 -13 -7 -17 -15z"/>
<path d="M2470 3664 c79 -53 127 -118 150 -204 l12 -44 19 24 19 25 0 -53 c0
-117 -66 -189 -215 -233 -33 -9 -51 -18 -40 -18 11 0 45 8 75 19 30 11 71 20
90 20 19 1 44 6 55 11 15 7 10 8 -19 3 l-39 -5 41 46 c52 59 66 102 59 178 -6
61 -27 105 -27 55 0 -43 -16 -41 -29 4 -19 62 -56 114 -109 153 -26 19 -51 35
-57 35 -5 0 2 -7 15 -16z"/>
<path d="M2197 3495 c12 -9 29 -26 38 -38 8 -12 15 -16 15 -9 0 15 -48 62 -64
62 -6 0 -1 -7 11 -15z"/>
<path d="M2948 3500 c13 -6 29 -25 37 -45 20 -47 20 -164 -1 -193 -8 -12 -11
-22 -6 -22 13 0 32 47 32 80 0 38 18 39 105 4 78 -31 151 -94 187 -161 39 -71
81 -225 65 -235 -8 -5 -7 -8 6 -8 22 0 22 -13 -1 -33 -28 -26 -45 -21 -39 10
4 21 -2 34 -28 60 -59 59 -145 36 -145 -38 0 -25 -3 -30 -16 -25 -14 5 -15 4
-5 -8 7 -8 26 -18 42 -21 35 -8 38 -22 7 -35 -16 -6 -18 -9 -7 -9 9 -1 22 6
29 14 7 8 31 16 54 16 40 2 40 2 -10 8 -61 8 -84 24 -84 61 0 60 79 82 126 34
20 -20 25 -33 22 -60 -3 -29 -1 -34 17 -34 26 0 65 27 65 45 0 22 -61 207 -83
250 -11 22 -29 52 -40 67 -21 28 -132 111 -154 114 -23 4 -88 27 -99 35 -6 5
-15 28 -18 52 -7 45 -39 87 -65 86 -10 0 -7 -4 7 -9z"/>
<path d="M2895 3476 c-9 -13 -18 -46 -22 -74 -5 -42 -9 -51 -29 -56 -13 -4
-48 -26 -77 -50 -30 -24 -67 -51 -83 -59 -16 -9 -25 -16 -21 -17 14 0 50 21
92 55 37 30 96 65 110 65 3 0 5 -7 5 -15 0 -8 -4 -15 -9 -15 -15 0 -22 -49
-10 -71 6 -11 13 -18 16 -15 3 3 1 12 -6 20 -9 11 -9 15 1 18 8 3 15 36 19 94
4 60 12 99 24 117 9 15 15 27 11 27 -3 0 -13 -11 -21 -24z"/>
<path d="M2916 3458 c-21 -29 -21 -127 -1 -174 14 -34 36 -42 41 -16 1 7 0 8
-3 2 -17 -36 -43 29 -43 110 0 43 5 61 19 74 18 17 20 17 31 -1 11 -17 11 -17
6 0 -3 10 -6 21 -6 23 0 13 -31 1 -44 -18z"/>
<path d="M3064 3462 c-12 -8 -44 -66 -44 -79 0 -4 11 10 23 32 35 62 71 60 87
-7 7 -28 8 -29 9 -8 2 49 -41 85 -75 62z"/>
<path d="M2972 3385 c-1 -27 -5 -61 -7 -75 l-6 -25 11 25 c6 13 9 47 7 75 l-3
50 -2 -50z"/>
<path d="M2236 3373 c-6 -14 -5 -15 5 -6 7 7 10 15 7 18 -3 3 -9 -2 -12 -12z"/>
<path d="M1810 3229 c0 -8 -31 -80 -69 -160 -120 -254 -151 -363 -151 -528 0
-143 37 -263 113 -370 49 -68 53 -75 36 -69 -54 22 -52 22 -40 0 6 -12 26 -29
44 -39 l32 -17 -30 -6 -29 -5 29 -19 c15 -10 51 -22 79 -26 47 -6 49 -8 26
-17 l-25 -11 28 -11 c16 -6 34 -12 40 -13 7 -1 -13 -4 -43 -8 -30 -4 62 -5
205 -3 143 3 276 5 295 5 27 0 30 2 15 7 -11 5 -61 6 -110 3 -77 -4 -97 -2
-130 15 -35 19 -42 19 -74 6 -38 -16 -159 -23 -179 -9 -11 6 -10 12 4 27 17
18 16 19 -29 19 -25 0 -58 5 -74 11 -28 11 -28 11 -5 22 25 11 30 27 8 27 -8
0 -24 8 -37 19 l-23 18 35 -5 34 -4 -26 28 c-45 49 -106 151 -129 217 -16 44
-24 95 -27 173 -9 182 25 305 156 574 60 123 61 124 58 78 -1 -27 1 -48 4 -48
14 0 17 28 8 75 -9 48 -19 71 -19 44z m309 -1286 c2 -2 -18 -3 -45 -3 l-49 1
30 13 c22 10 34 10 45 2 8 -5 17 -12 19 -13z"/>
<path d="M3183 3187 c12 -13 24 -22 26 -20 6 4 -30 43 -40 43 -5 0 2 -10 14
-23z"/>
<path d="M3087 3183 c-15 -4 -17 -11 -12 -31 11 -43 34 -62 77 -62 39 0 40 0
33 33 -4 17 -12 37 -19 44 -14 14 -55 23 -79 16z m73 -38 c0 -8 -4 -15 -10
-15 -5 0 -10 7 -10 15 0 8 5 15 10 15 6 0 10 -7 10 -15z m20 -35 c0 -5 -7 -10
-16 -10 -8 0 -12 5 -9 10 3 6 10 10 16 10 5 0 9 -4 9 -10z"/>
<path d="M2345 3155 c-5 -2 -36 -11 -69 -20 -32 -9 -57 -18 -55 -20 2 -2 42 7
89 20 47 13 76 23 65 23 -11 0 -24 -1 -30 -3z"/>
<path d="M2084 3098 c-42 -29 -93 -73 -113 -98 -32 -40 -29 -38 26 15 33 33
90 77 124 98 35 20 58 37 52 37 -7 0 -47 -24 -89 -52z"/>
<path d="M3211 3134 c0 -11 3 -14 6 -6 3 7 2 16 -1 19 -3 4 -6 -2 -5 -13z"/>
<path d="M2840 3121 c0 -6 5 -13 12 -17 6 -4 8 -3 4 4 -3 5 0 13 6 15 8 3 6 6
-4 6 -10 1 -18 -3 -18 -8z"/>
<path d="M2134 3074 c-75 -45 -124 -93 -169 -169 -37 -62 -85 -199 -84 -238 0
-12 9 12 20 53 43 166 120 276 250 353 35 20 59 37 53 37 -6 0 -37 -16 -70
-36z"/>
<path d="M3050 3100 c0 -13 49 -44 57 -36 3 3 1 6 -5 6 -7 0 -21 9 -32 20 -11
11 -20 16 -20 10z"/>
<path d="M2850 3080 c-12 -8 -10 -10 8 -10 13 0 20 4 17 10 -7 12 -6 12 -25 0z"/>
<path d="M2856 3049 c6 -8 13 -19 15 -26 2 -7 9 -9 17 -4 10 6 6 13 -15 26
-17 12 -24 13 -17 4z"/>
<path d="M2601 3004 c-23 -30 -26 -40 -11 -49 9 -6 15 8 11 29 -1 5 6 17 15
27 9 11 14 19 11 19 -3 0 -15 -12 -26 -26z"/>
<path d="M2888 2985 c6 -11 21 -29 34 -40 22 -19 22 -19 -2 10 -40 48 -43 51
-32 30z"/>
<path d="M2894 2892 c32 -41 33 -52 4 -45 -22 6 -22 5 5 -24 31 -33 34 -45 11
-36 -14 5 -14 3 -3 -15 13 -21 44 -18 35 4 -3 7 7 28 21 46 l27 33 -30 -28
c-33 -30 -47 -27 -38 8 4 17 -3 32 -26 56 l-32 34 26 -33z"/>
<path d="M2576 2903 c5 -5 12 -12 16 -18 4 -6 8 -2 8 8 0 9 -7 17 -17 17 -9 0
-12 -3 -7 -7z"/>
<path d="M2582 2840 c0 -19 2 -27 5 -17 2 9 2 25 0 35 -3 9 -5 1 -5 -18z"/>
<path d="M3013 2853 c9 -2 25 -2 35 0 9 3 1 5 -18 5 -19 0 -27 -2 -17 -5z"/>
<path d="M3086 2840 c5 -5 25 -12 44 -15 36 -5 29 -1 -25 16 -20 6 -26 6 -19
-1z"/>
<path d="M2045 2830 c-3 -6 1 -7 9 -4 18 7 21 14 7 14 -6 0 -13 -4 -16 -10z"/>
<path d="M2013 2803 c-3 -10 -8 -22 -11 -26 -2 -5 5 -4 16 2 13 7 19 17 16 26
-8 20 -13 19 -21 -2z"/>
<path d="M2612 2780 c0 -19 2 -27 5 -17 2 9 2 25 0 35 -3 9 -5 1 -5 -18z"/>
<path d="M2549 2752 c30 -28 52 -55 48 -58 -4 -4 -15 0 -24 8 -47 40 -41 25 6
-18 29 -26 62 -66 72 -88 11 -23 17 -32 13 -21 -3 11 -14 52 -24 90 -11 39
-19 60 -19 48 -1 -12 -6 -25 -13 -29 -6 -4 -8 -3 -4 4 8 13 -34 64 -77 94 -18
12 -8 -1 22 -30z"/>
<path d="M557 2768 c-10 -8 -21 -36 -27 -71 -12 -74 -4 -477 10 -491 5 -5 10
-34 10 -63 0 -28 5 -63 11 -76 7 -16 8 -43 2 -84 -8 -52 -7 -63 9 -83 13 -15
15 -26 8 -35 -6 -8 3 -39 33 -101 23 -49 46 -92 51 -95 5 -4 21 -38 35 -76 25
-63 98 -184 121 -198 5 -3 18 -25 29 -48 10 -23 42 -67 70 -99 28 -31 51 -60
51 -65 1 -24 223 -231 294 -273 24 -14 51 -33 61 -43 46 -47 143 -108 292
-184 134 -69 170 -83 208 -83 26 0 55 5 65 10 20 11 74 -6 65 -20 -5 -9 97
-38 195 -56 104 -20 470 -31 470 -15 0 8 17 12 48 12 64 0 99 4 152 19 40 11
58 13 123 19 10 0 16 5 13 9 -5 9 30 23 103 42 109 28 331 143 371 192 9 10
27 21 42 23 52 10 204 118 192 137 -3 4 3 8 14 8 22 0 276 255 268 269 -4 5 9
22 27 38 19 15 37 40 40 54 4 15 22 48 40 75 56 83 94 154 140 269 60 145 136
400 136 450 0 22 3 79 6 128 4 48 4 87 -1 87 -14 -1 -54 -69 -54 -93 0 -12 -5
-38 -10 -57 -6 -19 -15 -66 -21 -105 -16 -106 -65 -255 -116 -357 -13 -27 -19
-48 -14 -48 12 0 -61 -140 -98 -190 -15 -19 -35 -52 -46 -73 -11 -20 -26 -39
-35 -42 -8 -3 -30 -29 -48 -60 -37 -61 -293 -335 -350 -374 -20 -14 -56 -40
-80 -58 -24 -18 -52 -33 -61 -33 -10 0 -38 -17 -62 -38 -73 -63 -107 -84 -128
-77 -25 8 -121 -33 -121 -50 0 -20 -75 -43 -160 -50 -65 -5 -193 -32 -165 -35
21 -2 -26 -21 -74 -30 -49 -9 -85 -5 -77 9 2 3 -38 7 -90 7 -52 1 -94 -2 -94
-7 0 -14 -45 -11 -87 6 -40 15 -42 15 -170 15 -45 0 -85 5 -88 10 -3 6 -28 10
-55 10 -29 0 -52 5 -57 13 -9 14 -90 37 -132 37 -16 0 -39 9 -52 20 -21 18
-22 19 -4 15 l20 -6 -20 9 c-11 5 -42 15 -70 21 -27 7 -51 16 -53 22 -2 5 -10
9 -18 9 -8 0 -14 5 -14 10 0 6 -8 14 -17 17 -10 4 -37 22 -61 40 -24 18 -49
33 -55 33 -32 0 -254 162 -291 213 -10 12 -14 16 -11 10 9 -20 -7 -15 -39 11
-16 13 -26 28 -22 34 3 6 -9 20 -27 31 -39 24 -68 54 -71 74 -3 22 -31 60 -70
98 -20 18 -36 38 -36 44 0 6 -14 22 -31 34 -17 13 -40 42 -51 65 -46 95 -71
142 -86 161 -19 23 -42 62 -42 71 0 4 7 0 17 -7 15 -13 15 -11 -1 19 -9 18
-14 41 -11 51 3 10 1 29 -5 42 -10 22 -10 21 -6 -8 3 -18 2 -33 -3 -33 -10 0
-41 113 -46 165 -2 20 -9 43 -16 51 -7 8 -9 30 -6 54 3 25 1 39 -6 37 -11 -2
-34 102 -41 190 -3 28 -10 61 -16 73 -9 17 -9 49 -1 134 12 119 13 215 2 265
-5 28 -8 30 -24 19z"/>
<path d="M3233 2773 c20 -2 54 -2 75 0 20 2 3 4 -38 4 -41 0 -58 -2 -37 -4z"/>
<path d="M3375 2758 c11 -6 29 -18 40 -27 12 -9 8 -4 -7 12 -16 15 -34 27 -41
27 -6 0 -3 -6 8 -12z"/>
<path d="M1985 2750 c-4 -6 -1 -10 6 -10 8 0 8 -5 -2 -17 -11 -15 -10 -14 9 1
26 23 26 22 7 29 -8 4 -17 2 -20 -3z"/>
<path d="M3124 2738 l-19 -21 28 18 c28 18 33 25 19 25 -5 0 -17 -10 -28 -22z"/>
<path d="M2931 2693 c-11 -12 -9 -19 15 -44 25 -26 26 -29 8 -29 -15 0 -13 -4
11 -20 17 -11 37 -20 45 -19 8 0 2 5 -14 11 -20 7 -24 13 -15 18 9 6 4 16 -20
36 -22 18 -29 29 -20 34 6 4 10 12 8 18 -2 6 -10 4 -18 -5z"/>
<path d="M3438 2689 c-2 -7 -39 -15 -93 -19 l-90 -8 92 1 c69 2 94 5 98 16 3
8 4 16 1 18 -2 2 -6 -1 -8 -8z"/>
<path d="M3104 2671 c3 -5 15 -7 26 -4 28 7 25 13 -6 13 -14 0 -23 -4 -20 -9z"/>
<path d="M3102 2620 c0 -19 2 -27 5 -17 2 9 2 25 0 35 -3 9 -5 1 -5 -18z"/>
<path d="M3280 2640 c12 -7 9 -13 -15 -32 -64 -51 -63 -50 -25 -42 51 10 85
26 40 19 l-35 -6 28 21 c31 24 36 50 10 50 -15 0 -16 -2 -3 -10z"/>
<path d="M1873 2565 c0 -44 2 -61 4 -37 2 23 2 59 0 80 -2 20 -4 1 -4 -43z"/>
<path d="M3180 2599 c-30 -17 -44 -27 -30 -23 26 6 90 42 90 50 0 6 1 6 -60
-27z"/>
<path d="M3383 2603 c16 -3 25 -9 21 -15 -4 -7 -2 -8 4 -4 22 14 12 26 -20 25
-31 -2 -31 -2 -5 -6z"/>
<path d="M3432 2590 c0 -14 2 -19 5 -12 2 6 2 18 0 25 -3 6 -5 1 -5 -13z"/>
<path d="M3328 2593 c7 -3 16 -2 19 1 4 3 -2 6 -13 5 -11 0 -14 -3 -6 -6z"/>
<path d="M3038 2573 c7 -3 16 -2 19 1 4 3 -2 6 -13 5 -11 0 -14 -3 -6 -6z"/>
<path d="M3355 2570 c-13 -6 -15 -9 -5 -9 8 0 22 4 30 9 18 12 2 12 -25 0z"/>
<path d="M3270 2545 l-35 -13 60 0 c33 0 49 3 36 5 -19 4 -21 7 -10 14 22 14
-9 10 -51 -6z"/>
<path d="M2670 2543 c0 -6 16 -32 35 -57 32 -42 49 -96 26 -81 -6 3 -7 -24 -4
-68 4 -50 2 -76 -6 -81 -6 -4 -11 0 -12 11 0 10 -8 -10 -16 -45 -16 -67 -42
-102 -142 -185 l-45 -37 116 0 c92 0 118 3 128 15 19 22 50 15 74 -18 17 -23
18 -31 8 -48 -11 -18 -10 -19 11 -14 13 4 67 2 120 -4 l97 -11 159 65 c88 36
163 65 167 65 4 0 -39 -33 -96 -72 -80 -57 -109 -72 -134 -71 -17 2 -26 1 -21
-2 24 -10 240 -55 264 -54 14 0 -14 9 -64 20 -144 30 -144 23 2 126 70 50 147
100 170 112 53 26 84 71 91 127 2 24 2 44 -2 44 -32 0 -136 -94 -136 -123 0
-6 9 2 19 19 21 34 80 84 99 84 18 0 14 -36 -7 -78 -11 -22 -35 -46 -59 -60
-49 -27 -52 -27 -53 1 -1 18 -2 17 -8 -6 -5 -24 -17 -33 -64 -52 -63 -26 -60
-28 -42 32 7 26 -9 90 -31 118 -13 17 -16 18 -24 5 -5 -8 -10 -26 -10 -39 0
-23 -1 -22 -39 12 -40 36 -77 54 -89 42 -19 -19 82 -145 116 -145 13 0 35 -52
25 -60 -4 -4 -59 -28 -121 -53 -104 -43 -117 -46 -175 -40 l-63 6 0 33 c0 18
-8 42 -18 53 -16 17 -28 20 -82 16 -36 -2 -74 -11 -86 -20 -17 -11 -48 -15
-118 -15 l-95 1 40 35 c94 85 106 99 118 141 6 24 16 43 23 43 15 0 21 24 30
125 3 44 11 83 17 86 5 4 0 10 -12 14 -13 4 -36 28 -52 53 -16 25 -29 41 -29
35z m537 -333 c35 -21 66 -71 61 -98 -6 -29 -108 77 -108 113 0 10 15 5 47
-15z m121 -46 c10 -30 11 -48 2 -76 -6 -21 -15 -38 -19 -38 -14 0 -31 84 -24
124 7 46 24 42 41 -10z m-464 -146 c8 -13 17 -33 21 -45 5 -18 2 -23 -12 -23
-11 1 -26 17 -39 45 -20 43 -20 45 -3 45 10 0 25 -10 33 -22z m52 -13 c14 -35
12 -55 -6 -55 -4 0 -13 12 -18 28 -5 15 -13 35 -17 45 -5 12 -2 17 9 17 10 0
23 -15 32 -35z"/>
<path d="M3437 2527 c-3 -9 -16 -17 -27 -17 -11 0 -20 -6 -20 -13 0 -7 -7 -22
-15 -34 l-15 -22 -63 22 -62 22 70 6 70 5 -72 2 c-82 2 -95 -10 -35 -34 75
-30 80 -35 32 -30 -25 3 -56 7 -70 10 -14 4 -2 -2 25 -13 l50 -19 -35 -2 c-19
-1 -29 -4 -22 -7 33 -13 87 10 132 56 26 27 53 50 60 53 7 2 11 10 8 18 -3 11
-6 10 -11 -3z"/>
<path d="M1642 2490 c0 -19 2 -27 5 -17 2 9 2 25 0 35 -3 9 -5 1 -5 -18z"/>
<path d="M1882 2460 c0 -14 2 -19 5 -12 2 6 2 18 0 25 -3 6 -5 1 -5 -13z"/>
<path d="M3155 2453 c11 -3 27 -11 35 -18 8 -6 22 -15 30 -19 8 -4 6 0 -5 9
-11 9 -19 21 -17 26 1 5 -13 8 -30 8 -22 -1 -26 -3 -13 -6z"/>
<path d="M1961 2434 c0 -11 3 -14 6 -6 3 7 2 16 -1 19 -3 4 -6 -2 -5 -13z"/>
<path d="M3083 2443 c9 -2 25 -2 35 0 9 3 1 5 -18 5 -19 0 -27 -2 -17 -5z"/>
<path d="M2788 2433 c6 -2 18 -2 25 0 6 3 1 5 -13 5 -14 0 -19 -2 -12 -5z"/>
<path d="M2998 2433 c12 -2 30 -2 40 0 9 3 -1 5 -23 4 -22 0 -30 -2 -17 -4z"/>
<path d="M1895 2405 c9 -43 48 -126 74 -155 17 -19 16 -15 -5 17 -14 24 -37
71 -51 105 -13 35 -21 50 -18 33z"/>
<path d="M2868 2423 c17 -2 47 -2 65 0 17 2 3 4 -33 4 -36 0 -50 -2 -32 -4z"/>
<path d="M1965 2390 c-3 -5 -1 -18 4 -27 9 -16 10 -14 11 10 0 28 -5 34 -15
17z"/>
<path d="M2000 2339 c0 -5 -4 -7 -10 -4 -5 3 -10 1 -10 -4 0 -6 7 -11 15 -11
8 0 15 7 15 15 0 8 -2 15 -5 15 -3 0 -5 -5 -5 -11z"/>
<path d="M2240 2331 c-7 -13 -7 -22 0 -26 11 -7 11 -8 14 23 3 27 0 28 -14 3z"/>
<path d="M2010 2294 c0 -6 7 -19 16 -30 14 -18 14 -18 3 6 -14 31 -19 36 -19
24z"/>
<path d="M1700 2276 c0 -11 30 -66 36 -66 2 0 -3 15 -12 33 -19 36 -24 44 -24
33z"/>
<path d="M2220 2260 c0 -6 4 -10 10 -10 5 0 7 -8 4 -17 -5 -15 -4 -16 5 -3 14
20 14 27 -4 34 -8 3 -15 1 -15 -4z"/>
<path d="M2221 2197 c0 -10 5 -25 13 -32 12 -12 15 -12 20 1 9 22 8 24 -8 18
-8 -3 -16 2 -19 13 -5 17 -5 17 -6 0z"/>
<path d="M1760 2170 c11 -16 26 -33 32 -36 7 -4 -1 9 -16 29 -34 44 -46 50
-16 7z"/>
<path d="M2222 2090 c0 -14 2 -19 5 -12 2 6 2 18 0 25 -3 6 -5 1 -5 -13z"/>
<path d="M2212 2020 c0 -19 2 -27 5 -17 2 9 2 25 0 35 -3 9 -5 1 -5 -18z"/>
<path d="M1215 2021 c17 -3 86 -3 155 0 l125 5 -155 1 c-85 1 -141 -2 -125 -6z"/>
<path d="M1525 2011 l30 -8 -40 -8 c-126 -24 -208 -43 -195 -44 8 -1 62 8 120
19 136 26 148 26 232 -10 38 -16 80 -30 92 -29 15 1 13 3 -9 8 -16 5 -63 22
-104 40 -40 17 -92 33 -115 36 -34 3 -36 3 -11 -4z"/>
<path d="M2765 1955 c-13 -19 -203 -38 -305 -31 -41 3 -61 2 -45 -2 27 -7 20
-11 -84 -51 -63 -24 -136 -46 -163 -49 -26 -2 -48 -8 -48 -12 0 -10 92 -88
140 -119 l35 -22 -35 7 c-29 5 -135 41 -235 78 -16 6 -17 6 -5 -3 8 -6 50 -25
93 -41 122 -48 310 -81 203 -36 -71 30 -195 129 -166 133 8 1 204 12 435 24
398 20 425 20 510 5 132 -25 127 -22 119 -62 -9 -48 2 -94 31 -129 21 -25 26
-28 35 -15 5 8 10 25 10 37 l0 22 36 -24 c20 -14 42 -25 48 -25 6 1 -5 9 -24
20 -35 18 -78 76 -66 88 11 11 77 -31 104 -66 21 -28 23 -35 11 -43 -11 -7 -9
-9 9 -9 22 0 22 1 8 29 -21 39 -77 87 -120 101 -25 8 -38 19 -42 36 -4 15 -13
24 -26 24 -12 0 -37 10 -56 22 -20 12 -32 16 -27 9 6 -11 -3 -12 -46 -5 -30 5
-115 9 -189 8 l-135 -1 60 15 c33 9 55 17 49 19 -7 2 -48 -5 -93 -17 -73 -19
-140 -25 -474 -44 -38 -2 -65 0 -60 4 4 4 58 24 118 43 87 28 138 38 244 46
73 6 139 15 146 21 7 6 21 7 31 4 20 -7 19 -6 -6 13 -12 9 -18 9 -25 -2z m495
-197 c20 -44 27 -118 12 -118 -18 0 -43 39 -49 73 -5 35 2 87 13 87 3 0 14
-19 24 -42z"/>
<path d="M1206 1949 c3 -5 26 -9 51 -9 26 0 44 2 42 4 -9 8 -98 13 -93 5z"/>
<path d="M2985 1891 c50 -4 100 -13 112 -19 12 -7 25 -12 30 -12 4 1 -5 8 -22
17 -20 11 -59 17 -120 19 l-90 2 90 -7z"/>
<path d="M1307 1853 c-54 -14 -96 -27 -94 -30 3 -2 51 8 108 23 126 32 222 29
342 -10 43 -15 88 -26 100 -25 13 1 6 5 -18 11 -22 5 -75 21 -118 34 -101 31
-190 30 -320 -3z"/>
<path d="M1879 1853 c6 -12 17 -26 24 -30 7 -5 -12 -10 -48 -14 l-60 -6 65 -1
c45 -2 75 -8 98 -22 50 -30 50 -24 1 11 -24 17 -55 43 -67 57 -20 22 -22 23
-13 5z"/>
<path d="M3460 1850 c-18 -6 -4 -9 50 -10 66 -2 71 -3 42 -11 -18 -6 -59 -14
-90 -18 -52 -8 -53 -9 -16 -10 43 -1 193 34 209 50 11 11 -159 11 -195 -1z"/>
<path d="M3261 1806 c2 -2 31 -6 64 -9 39 -4 50 -3 30 2 -31 9 -102 14 -94 7z"/>
<path d="M1465 1478 l-139 -70 23 -19 c21 -17 25 -17 44 -4 33 23 50 18 91
-24 37 -38 37 -39 22 -69 -14 -28 -14 -31 4 -47 11 -10 22 -16 24 -14 1 2 29
66 60 142 55 133 57 140 40 158 -9 10 -20 19 -23 18 -3 0 -69 -32 -146 -71z
m103 -45 c-29 -68 -34 -71 -68 -38 l-30 28 48 28 c67 40 74 37 50 -18z"/>
<path d="M3367 1532 c-9 -10 -17 -22 -17 -25 0 -16 113 -277 120 -277 4 0 13
7 20 15 10 12 10 21 0 46 -13 29 -11 32 28 72 l41 41 35 -16 c32 -16 35 -16
51 2 16 17 11 21 -107 83 -155 83 -151 81 -171 59z m103 -77 c28 -14 50 -28
50 -31 0 -6 -53 -53 -61 -54 -4 0 -15 21 -25 47 -11 27 -20 51 -22 55 -6 13 6
9 58 -17z"/>
<path d="M1740 1255 c-55 -106 -63 -127 -50 -135 24 -15 28 -13 56 35 39 68
58 58 62 -31 3 -64 5 -72 27 -82 24 -11 24 -11 27 56 2 37 8 67 13 67 38 2 64
18 79 50 26 53 5 92 -71 133 -34 18 -65 32 -69 32 -5 0 -38 -57 -74 -125z
m144 44 c27 -22 34 -57 14 -77 -16 -16 -43 -15 -79 3 l-29 16 20 39 c23 45 36
49 74 19z"/>
<path d="M3148 1369 c-15 -8 -8 -24 58 -134 41 -69 79 -125 83 -125 5 0 14 7
21 15 10 13 0 35 -59 135 -40 66 -75 120 -79 120 -4 0 -15 -5 -24 -11z"/>
<path d="M2880 1249 c-36 -12 -68 -24 -73 -28 -10 -10 83 -271 97 -271 17 0
114 39 140 55 49 32 61 117 26 185 -37 73 -92 90 -190 59z m112 -40 c25 -13
48 -67 48 -112 0 -39 -18 -59 -73 -82 -29 -12 -38 -13 -42 -3 -2 7 -18 51 -35
97 -16 47 -29 86 -27 87 21 22 98 29 129 13z"/>
<path d="M2130 1213 c-53 -27 -82 -85 -77 -156 3 -46 9 -63 31 -86 35 -37 99
-54 149 -40 36 10 71 44 61 61 -9 13 -51 9 -64 -7 -36 -43 -130 11 -130 75 0
42 24 96 48 109 45 24 106 7 122 -33 10 -28 60 -42 60 -17 0 23 -36 78 -59 90
-39 22 -104 23 -141 4z"/>
<path d="M2505 1073 c-20 -65 -40 -131 -46 -147 -11 -35 -7 -40 23 -33 16 4
27 17 33 39 10 32 12 33 67 36 55 3 58 2 73 -28 11 -21 23 -30 40 -30 14 0 25
2 25 4 0 2 -26 63 -59 137 -55 127 -60 134 -89 137 l-31 3 -36 -118z m115 -54
c0 -5 -18 -9 -40 -9 -22 0 -40 4 -40 8 0 5 7 33 16 63 l16 54 24 -54 c13 -29
24 -57 24 -62z"/>
</g>
</svg>
